<svg id="Capa_1" enable-background="new 0 0 512 512" height="512" viewBox="0 0 512 512" width="512" xmlns="http://www.w3.org/2000/svg"><g><g><g><g><g><g><g><circle cx="256" cy="256" fill="#7583f1" r="256"/></g></g></g></g></g></g><path d="m511.617 270.123-123.585-123.584-200.185 23.885-110.847 178.859 162.172 162.173c5.563.36 11.174.544 16.828.544 136.646 0 248.286-107.061 255.617-241.877z" fill="#4253cd"/><g><path d="m256 427.507c-94.721 0-171.507-76.786-171.507-171.507 0-94.25 76.028-170.731 170.1-171.489l30.12 44.831-30.12 34.699c-50.148.753-90.57 41.632-90.57 91.959 0 50.798 41.179 91.977 91.977 91.977l38.308 35.441z" fill="#ffcd00"/></g><g><path d="m376.938 377.601-9.647-53.671-47.735-1.446c-16.515 15.792-38.902 25.492-63.556 25.492-.119 0-.237-.004-.356-.004v79.529c.119 0 .237.005.356.005 47.191.001 89.928-19.063 120.938-49.905z" fill="#ffa300"/></g><g><path d="m256 164.023c50.798 0 91.977 41.179 91.977 91.977 0 26.144-10.909 49.739-28.421 66.485l57.382 55.117c31.232-31.062 50.569-74.072 50.569-121.601 0-94.721-76.786-171.507-171.507-171.507-.471 0-.938.014-1.407.018v79.53c.469-.008.936-.019 1.407-.019z" fill="#fe6a16"/></g><g><g><circle cx="124.41" cy="268.9" fill="#d47f6c" r="25.483"/></g><g><path d="m77 349.283c0-26.184 21.226-47.41 47.41-47.41s47.41 21.226 47.41 47.41z" fill="#fff"/></g></g><g><g><circle cx="384.524" cy="224.645" fill="#ffcdbe" r="25.483"/></g><g><path d="m337.114 305.028c0-26.184 21.226-47.41 47.41-47.41s47.41 21.226 47.41 47.41z" fill="#fff"/></g></g></g></svg>