<svg id="Flat" height="512" viewBox="0 0 512 512" width="512" xmlns="http://www.w3.org/2000/svg"><path d="m480 32h-48a8 8 0 0 0 0 16h28.686l-104 104h-68.686a8 8 0 0 0 -5.657 2.343l-117.657 117.657h-60.686a8 8 0 0 0 -5.657 2.343l-72 72a8 8 0 0 0 11.314 11.314l69.656-69.657h60.687a8 8 0 0 0 5.657-2.343l117.656-117.657h68.687a8 8 0 0 0 5.657-2.343l106.343-106.343v28.686a8 8 0 0 0 16 0v-48a8 8 0 0 0 -8-8z" fill="#3dc285"/><path d="m136 360 137.139-7.257a18.105 18.105 0 0 1 18.47 13.692 18.105 18.105 0 0 1 -13.174 21.956l-43.973 10.994 61.538 24.615 164.6-42.94a22.73 22.73 0 0 1 13.9 43.209l-186.5 71.731-136-32-56 8h-72v-112z" fill="#f0c6a4"/><path d="m24 344h72v144h-72z" fill="#2d85cc" transform="matrix(-1 0 0 -1 120 832)"/><path d="m199.994 416a8.007 8.007 0 0 0 1.946-.241l34.462-8.615a8 8 0 1 0 -3.881-15.522l-34.461 8.615a8 8 0 0 0 1.934 15.763z" fill="#e0b999"/><circle cx="384" cy="280" fill="#ffd33a" r="80"/><g fill="#ffb632"><path d="m384 192a88 88 0 1 0 88 88 88.105 88.105 0 0 0 -88-88zm0 160a72 72 0 1 1 72-72 72.084 72.084 0 0 1 -72 72z"/><path d="m408 296a24.022 24.022 0 0 1 -16 22.62v9.38a8 8 0 0 1 -16 0v-8h-8a8 8 0 0 1 0-16h16a8 8 0 0 0 0-16 24 24 0 0 1 -8-46.62v-9.38a8 8 0 0 1 16 0v8h8a8 8 0 0 1 0 16h-16a8 8 0 0 0 0 16 24.032 24.032 0 0 1 24 24z"/></g></svg>