<svg id="Capa_1" enable-background="new 0 0 512 512" height="512" viewBox="0 0 512 512" width="512" xmlns="http://www.w3.org/2000/svg"><g><g><path d="m250.053 359.145c-2.502 0-4.957-1.213-6.444-3.454-4.709-7.094-14.849-10.319-22.527-11.777-9.032-1.714-16.683-1.416-16.761-1.413-4.267.19-7.866-3.131-8.044-7.394-.179-4.264 3.131-7.865 7.394-8.044 1.571-.062 38.57-1.369 52.811 20.082 2.36 3.555 1.391 8.35-2.163 10.71-1.314.873-2.798 1.29-4.266 1.29z" fill="#5ea570"/></g><g><path d="m261.947 359.145c-1.468 0-2.952-.418-4.266-1.29-3.555-2.36-4.524-7.156-2.165-10.71 14.241-21.453 51.246-20.147 52.812-20.083 4.264.179 7.573 3.781 7.394 8.044s-3.788 7.577-8.04 7.394c-8.29-.321-31.477 1.417-39.291 13.189-1.487 2.243-3.942 3.456-6.444 3.456z" fill="#5ea570"/></g><path d="m239.744 219.505h32.512v217.824h-32.512z" fill="#5ea570"/><path d="m239.744 255.933c5.317.718 10.742 1.097 16.256 1.097s10.939-.379 16.256-1.097v-36.428h-32.512z" fill="#528e61"/><path d="m272.256 374.748c-5.011-2.068-10.498-3.219-16.256-3.219-5.759 0-11.245 1.15-16.256 3.219v62.581h32.512z" fill="#528e61"/><path d="m417.057 512c5.07 0 9.224-4.148 9.23-9.218 0-19.289-15.637-34.926-34.926-34.926-.866 0-1.724.035-2.574.1-1.068.082-2.035-.618-2.307-1.655-3.495-13.33-15.62-23.165-30.045-23.165-6.101 0-11.787 1.764-16.586 4.803-1.215.77-2.838.167-3.284-1.201-4.055-12.438-15.74-21.428-29.532-21.428-2.239 0-4.421.241-6.525.693-1.223.263-2.424-.508-2.667-1.735-3.881-19.568-21.134-34.321-41.841-34.321s-37.961 14.754-41.841 34.321c-.243 1.227-1.444 1.998-2.667 1.735-2.104-.452-4.286-.693-6.525-.693-13.791 0-25.477 8.99-29.532 21.428-.446 1.367-2.069 1.97-3.284 1.201-4.799-3.04-10.485-4.804-16.586-4.804-14.426 0-26.551 9.835-30.045 23.165-.272 1.036-1.239 1.736-2.307 1.655-.85-.065-1.708-.1-2.574-.1-19.289 0-34.926 15.637-34.926 34.926v.096c.007 5.018 4.117 9.123 9.134 9.123z" fill="#c17d4f"/><g><path d="m391.361 467.856c-.866 0-1.724.035-2.574.1-1.068.082-2.035-.618-2.307-1.655-3.495-13.33-15.62-23.165-30.045-23.165-6.101 0-11.787 1.764-16.586 4.803-1.215.77-2.838.167-3.284-1.201-4.055-12.438-15.74-21.428-29.532-21.428-2.239 0-4.421.241-6.525.693-1.223.263-2.424-.508-2.667-1.735-3.881-19.568-21.134-34.321-41.841-34.321-19.959 0-36.701 13.711-41.36 32.224 7.726-7.779 18.423-12.603 30.255-12.603 17.163 0 31.953 10.136 38.723 24.747 2.762 5.962 8.481 10.148 15.026 10.724 8.643.761 16.571 5.146 21.834 11.916 4.32 5.556 11.422 7.975 18.303 6.495 2.111-.454 4.301-.693 6.548-.693 11.785 0 22.034 6.564 27.297 16.234 2.596 4.771 7.355 8.071 12.729 8.857 13.226 1.932 24.26 11.347 28.25 24.152h3.535c5.042 0 9.133-4.08 9.146-9.122v-.096c.001-19.289-15.636-34.926-34.925-34.926z" fill="#985e33"/></g><path d="m203.996 345.084h-14.776c-29.711 0-53.796-24.085-53.796-53.796v-14.776c0-3.613 2.929-6.541 6.541-6.541h14.777c29.711 0 53.796 24.085 53.796 53.796v14.776c0 3.612-2.929 6.541-6.542 6.541z" fill="#8bc852"/><path d="m156.741 269.969h-14.777c-3.613 0-6.541 2.929-6.541 6.541v7.529h7.59c29.711 0 53.796 24.085 53.796 53.796v7.247h7.186c3.613 0 6.541-2.929 6.541-6.541v-14.776c.002-29.71-24.084-53.796-53.795-53.796z" fill="#7dbe3b"/><path d="m308.004 345.084h14.776c29.711 0 53.796-24.085 53.796-53.796v-14.776c0-3.613-2.929-6.541-6.541-6.541h-14.776c-29.711 0-53.796 24.085-53.796 53.796v14.776c-.001 3.612 2.928 6.541 6.541 6.541z" fill="#8bc852"/><path d="m370.035 269.969h-8v9.2c0 29.711-24.086 53.796-53.797 53.796h-6.777v5.576c0 3.613 2.929 6.541 6.541 6.541h14.777c29.711 0 53.796-24.085 53.796-53.796v-14.776c.002-3.612-2.927-6.541-6.54-6.541z" fill="#7dbe3b"/><path d="m420.481 230.003h-328.962c-14.667 0-26.556-11.89-26.556-26.556v-176.891c-.001-14.666 11.889-26.556 26.556-26.556h328.963c14.667 0 26.556 11.89 26.556 26.556v176.891c0 14.667-11.89 26.556-26.557 26.556z" fill="#5ea570"/><path d="m420.481 0h-16.256c14.667 0 26.556 11.89 26.556 26.556v176.891c0 14.667-11.89 26.556-26.556 26.556h16.256c14.667 0 26.556-11.89 26.556-26.556v-176.891c.001-14.666-11.889-26.556-26.556-26.556z" fill="#528e61"/><path d="m382.672 174.709h-253.344c-5.573 0-10.092-4.518-10.092-10.092v-99.231c0-5.573 4.518-10.092 10.092-10.092h253.345c5.573 0 10.092 4.518 10.092 10.092v99.232c-.001 5.573-4.519 10.091-10.093 10.091z" fill="#8bc852"/><path d="m382.672 55.294h-19.46c5.573 0 10.092 4.518 10.092 10.092v99.232c0 5.573-4.518 10.092-10.092 10.092h19.46c5.573 0 10.092-4.518 10.092-10.092v-99.232c0-5.574-4.518-10.092-10.092-10.092z" fill="#7dbe3b"/><circle cx="256" cy="115.002" fill="#cbe7af" r="83.019"/><path d="m256 31.982c-3.097 0-6.15.183-9.158.514 41.539 4.56 73.861 39.752 73.861 82.506s-32.322 77.945-73.861 82.506c3.009.33 6.062.514 9.158.514 45.85 0 83.02-37.169 83.02-83.019 0-45.852-37.17-83.021-83.02-83.021z" fill="#aad880"/><path d="m267.03 107.246c-1.259-.445-2.539-.907-3.822-1.382v-24.021c3.311.866 5.367 2.22 5.592 2.374 3.443 2.458 8.23 1.692 10.73-1.734 2.515-3.447 1.76-8.28-1.687-10.796-.354-.258-5.938-4.239-14.635-5.577v-3.64c0-4.267-3.459-7.726-7.726-7.726-4.268 0-7.726 3.459-7.726 7.726v4.507c-.412.11-.824.22-1.241.345-8.975 2.704-15.677 10.363-17.491 19.989-1.665 8.84 1.209 17.397 7.502 22.332 2.926 2.295 6.486 4.399 11.23 6.582v31.296c-3.235-.497-5.728-1.647-9.642-4.208-3.569-2.337-8.358-1.335-10.695 2.236-2.336 3.571-1.335 8.36 2.236 10.696 6.854 4.484 11.852 6.223 18.101 6.812v4.475c0 4.267 3.459 7.726 7.726 7.726 4.268 0 7.726-3.459 7.726-7.726v-5.206c12.465-3.239 20.454-13.916 22.224-24.448 2.29-13.621-5.105-25.931-18.402-30.632zm-20.968-9.761c-1.71-1.341-2.438-4.211-1.853-7.312.402-2.138 1.528-4.588 3.546-6.302v14.821c-.601-.397-1.172-.798-1.693-1.207zm24.132 37.832c-.656 3.9-3.027 7.993-6.986 10.406v-23.368c7.652 3.408 7.462 10.121 6.986 12.962z" fill="#5ea570"/></g></svg>