<svg id="Layer_1" enable-background="new 0 0 512 512" height="512" viewBox="0 0 512 512" width="512" xmlns="http://www.w3.org/2000/svg"><g><path d="m423.977 173.167c.762 46.27-17.192 88.352-46.786 119.176-17.8 18.54-29.032 42.403-32.221 67.906l-.97 7.751h-176l-.969-7.752c-3.199-25.582-14.553-49.452-32.382-68.073-28.894-30.177-46.649-71.106-46.649-116.175 0-92.114 74.144-166.92 166.005-167.989 92.13-1.072 168.454 73.032 169.972 165.156z" fill="#f1cc76"/><path d="m377.19 292.34c-17.8 18.54-29.03 42.41-32.22 67.91l-.97 7.75h-40l.97-7.75c3.19-25.5 14.42-49.37 32.22-67.91 29.59-30.82 47.55-72.9 46.79-119.17-1.4-84.71-66.03-154.17-148.04-163.98 99.059-11.86 186.41 65.163 188.04 163.98.76 46.27-17.2 88.35-46.79 119.17z" fill="#ebb15d"/><path d="m288 264h-32v-24c0-44.183 35.817-80 80-80h32v24c0 44.182-35.817 80-80 80z" fill="#79cb9c"/><path d="m368 160v24c0 44.18-35.82 80-80 80h-32c44.18 0 80-35.82 80-80v-24z" fill="#63ac7d"/><path d="m224 264h32v-24c0-44.183-35.817-80-80-80h-32v24c0 44.182 35.817 80 80 80z" fill="#79cb9c"/><path d="m256 240v24h-32v-24c0-44.18-35.82-80-80-80h32c44.18 0 80 35.82 80 80z" fill="#63ac7d"/><path d="m340 408h-168c-11.046 0-20-8.954-20-20 0-11.014 8.923-20 20-20h168c11.046 0 20 8.954 20 20 0 11.013-8.923 20-20 20z" fill="#edebfd"/><path d="m340 448h-168c-11.046 0-20-8.954-20-20 0-11.014 8.923-20 20-20h168c11.046 0 20 8.954 20 20 0 11.013-8.923 20-20 20z" fill="#edebfd"/><path d="m360 388c0 11.04-8.96 20-20 20h-40c5.52 0 10.52-2.24 14.14-5.86 12.487-12.487 3.735-34.14-14.14-34.14h40c11.05 0 20 8.95 20 20z" fill="#d2d2fc"/><path d="m360 428c0 11.04-8.96 20-20 20h-40c5.52 0 10.52-2.24 14.14-5.86 12.487-12.487 3.735-34.14-14.14-34.14h40c11.05 0 20 8.95 20 20z" fill="#d2d2fc"/><path d="m271.432 504h-30.863c-32.459 0-59.978-23.867-64.568-56-.014-.1-3.598 0 160 0-4.569 31.973-31.951 56-64.569 56z" fill="#595965"/><path d="m336 448c-4.607 32.171-32.135 56-64.57 56-41.741 0-39.137.005-39.43-.01 32.126-.261 59.413-23.958 64-55.99z" fill="#44454e"/><path d="m382.961 297.883c32.379-33.724 49.786-78.063 49.015-124.848-1.59-96.529-81.436-174.122-178.064-173.023-96.344 1.121-173.912 79.46-173.912 175.988 0 45.571 17.355 88.794 48.87 121.708 16.343 17.07 27.151 38.962 30.449 65.341-17.058 8.705-20.608 31.524-6.888 44.951-16.965 16.603-6.795 45.654 16.944 47.873 7.924 32.997 37.423 56.127 71.193 56.127h30.863c33.801 0 63.276-23.159 71.194-56.127 23.725-2.218 33.921-31.258 16.944-47.873 13.743-13.45 10.146-36.258-6.887-44.951 3.269-26.133 13.838-48.041 30.279-65.166zm-242.535-11.241c-28.649-29.921-44.426-69.215-44.426-110.642 0-87.204 70.922-158.975 158.098-159.989 87.776-.996 160.434 69.537 161.879 157.288.701 42.536-15.123 82.846-44.558 113.503-18.361 19.124-30.9 44.471-34.481 73.197h-72.938v-88h24c48.523 0 88-39.477 88-88v-24c0-4.418-3.582-8-8-8h-32c-35.455 0-66.076 21.078-80 51.36-13.924-30.281-44.545-51.359-80-51.359h-32c-4.418 0-8 3.582-8 8v24c0 48.523 39.477 88 88 88h24v88h-72.938c-3.631-28.994-16.377-54.288-34.636-73.358zm185.595-83.91c-2.91-3.326-7.966-3.661-11.288-.752l-50.733 44.39v-6.37c0-39.701 32.299-72 72-72h24v16c0 39.701-32.299 72-72 72h-10.709l47.977-41.979c3.325-2.91 3.662-7.964.753-11.289zm-78.021 43.638-50.732-44.391c-3.326-2.911-8.379-2.573-11.289.752s-2.573 8.379.752 11.289l47.977 41.98h-10.708c-39.701 0-72-32.299-72-72v-16h24c39.701 0 72 32.299 72 72zm23.432 249.63h-30.863c-25.125 0-47.143-16.656-54.562-40h139.986c-7.419 23.343-29.436 40-54.561 40zm80.568-68c0 6.617-5.383 12-12 12-9.75 0-161.534 0-168 0-6.617 0-12-5.383-12-12s5.383-12 12-12h168c6.617 0 12 5.383 12 12zm-180-28c-6.617 0-12-5.383-12-12s5.383-12 12-12h168c6.617 0 12 5.383 12 12s-5.383 12-12 12z"/><path d="m56 176c0-4.418-3.582-8-8-8h-40c-4.418 0-8 3.582-8 8s3.582 8 8 8h40c4.418 0 8-3.582 8-8z"/><path d="m71.867 273.071-34.641 20c-3.826 2.209-5.137 7.102-2.928 10.928 2.213 3.832 7.106 5.134 10.928 2.928l34.641-20c3.826-2.209 5.137-7.102 2.928-10.928-2.21-3.826-7.102-5.135-10.928-2.928z"/><path d="m37.226 58.928c37.081 21.408 35.602 21.073 38.634 21.073 8.172 0 11.065-10.855 4.007-14.93l-34.641-20c-3.827-2.209-8.718-.898-10.928 2.928-2.21 3.827-.899 8.72 2.928 10.929z"/><path d="m504 168h-40c-4.418 0-8 3.582-8 8s3.582 8 8 8h40c4.418 0 8-3.582 8-8s-3.582-8-8-8z"/><path d="m474.774 293.071-34.642-20c-3.826-2.21-8.719-.899-10.929 2.928-2.209 3.826-.897 8.719 2.929 10.928l34.642 20c3.809 2.2 8.709.915 10.929-2.928 2.209-3.826.898-8.719-2.929-10.928z"/><path d="m436.141 80.001c3.047 0 1.6.308 38.634-21.073 3.826-2.209 5.138-7.102 2.929-10.928-2.209-3.825-7.101-5.14-10.929-2.928l-34.642 20c-7.071 4.082-4.152 14.929 4.008 14.929z"/></g></svg>