<?xml version="1.0" encoding="iso-8859-1"?>
<!-- Generator: Adobe Illustrator 19.0.0, SVG Export Plug-In . SVG Version: 6.00 Build 0)  -->
<svg version="1.1" id="Capa_1" xmlns="http://www.w3.org/2000/svg" xmlns:xlink="http://www.w3.org/1999/xlink" x="0px" y="0px"
	 viewBox="0 0 512.008 512.008" style="enable-background:new 0 0 512.008 512.008;" xml:space="preserve">
<path style="fill:#1976D2;" d="M480,512.004c-8.192,0-16.384-3.136-22.624-9.376l-152.32-152.32
	c-12.512-12.512-12.512-32.736,0-45.248s32.736-12.512,45.248,0l152.32,152.32c12.512,12.512,12.512,32.736,0,45.248
	C496.384,508.868,488.192,512.004,480,512.004z"/>
<circle style="fill:#2196F3;" cx="208" cy="208.004" r="208"/>
<path style="fill:#FAFAFA;" d="M208,64.004c-61.76,0-112,50.24-112,112c0,57.472,89.856,159.296,100.096,170.688
	c3.04,3.36,7.36,5.312,11.904,5.312s8.864-1.952,11.904-5.312C230.144,335.3,320,233.476,320,176.004
	C320,114.244,269.76,64.004,208,64.004z"/>
<circle style="fill:#2196F3;" cx="208" cy="176.004" r="48"/>
<g>
</g>
<g>
</g>
<g>
</g>
<g>
</g>
<g>
</g>
<g>
</g>
<g>
</g>
<g>
</g>
<g>
</g>
<g>
</g>
<g>
</g>
<g>
</g>
<g>
</g>
<g>
</g>
<g>
</g>
</svg>
