<?xml version="1.0" encoding="iso-8859-1"?>
<!-- Generator: Adobe Illustrator 19.0.0, SVG Export Plug-In . SVG Version: 6.00 Build 0)  -->
<svg version="1.1" id="Layer_1" xmlns="http://www.w3.org/2000/svg" xmlns:xlink="http://www.w3.org/1999/xlink" x="0px" y="0px"
	 viewBox="0 0 408.759 408.759" style="enable-background:new 0 0 408.759 408.759;" xml:space="preserve">
<g>
	<path style="fill:#FFBE00;" d="M204.383,408.759c-58.121,0-113.675-24.869-152.417-68.227
		C18.46,303.057,0.005,254.703,0.005,204.378C0.005,91.685,91.69,0,204.383,0c50.319,0,98.676,18.455,136.165,51.964
		c43.348,38.762,68.207,94.314,68.207,152.415C408.755,317.074,317.074,408.759,204.383,408.759"/>
	<path style="fill:#F4502A;" d="M377.75,204.38c0,18.081-2.77,35.522-7.909,51.901c-17.512,55.899-62.562,99.62-119.251,115.25
		c-9.32,2.57-18.95,4.38-28.83,5.361c-5.721,0.58-11.51,0.87-17.38,0.87c-51.39,0-97.559-22.361-129.301-57.88
		c-0.259-0.29-0.519-0.589-0.789-0.879C47.339,288.44,31,248.321,31,204.38c0-95.749,77.619-173.379,173.38-173.379
		c43.949,0,84.069,16.35,114.631,43.291c0.29,0.27,0.589,0.53,0.879,0.79c35.06,31.35,57.29,76.729,57.84,127.331
		C377.75,203.071,377.75,203.721,377.75,204.38"/>
	<path style="fill:#C29100;" d="M288.278,52.614c0.057,0.032,0.118,0.065,0.175,0.097C288.395,52.678,288.337,52.646,288.278,52.614
		 M287.79,52.344c0.094,0.052,0.191,0.105,0.285,0.157C287.979,52.448,287.885,52.396,287.79,52.344 M287.316,52.085
		c0.127,0.07,0.259,0.142,0.386,0.211C287.576,52.227,287.444,52.155,287.316,52.085 M204.383,30.999
		c-74.439,0-137.917,46.909-162.494,112.771C66.465,77.905,129.941,31,204.379,31c30.041,0,58.293,7.639,82.926,21.078
		C262.677,38.64,234.422,30.999,204.383,30.999"/>
	<path style="fill:#BA3D20;" d="M204.38,31.001c-74.439,0-137.914,46.905-162.49,112.77c-7.04,18.865-10.885,39.28-10.885,60.599
		c0,53.1,23.86,100.621,61.459,132.42c-25.53-30.2-40.919-69.239-40.919-111.88c0-95.749,77.619-173.37,173.38-173.37
		c42.631,0,81.68,15.39,111.87,40.921c-13.526-15.994-29.901-29.505-48.34-39.75c-0.057-0.032-0.118-0.065-0.175-0.097
		c-0.069-0.038-0.135-0.075-0.204-0.113c-0.094-0.052-0.191-0.105-0.285-0.157c-0.029-0.016-0.057-0.032-0.086-0.048
		c-0.127-0.07-0.259-0.142-0.386-0.211c-0.005-0.003-0.006-0.003-0.011-0.006C262.672,38.64,234.421,31.001,204.38,31.001"/>
	<path style="fill:#BA3D20;" d="M274.613,99.293c1.787,2.225,2.856,5.05,2.856,8.121v40.881h-22.001v-31.86H153.289v31.86h-21.995
		l62.085,62.094v-42.247H167.17l37.209-37.311l37.209,37.311H215.38v64.25v81.929h-22.001l57.21,57.21
		c56.689-15.63,101.74-59.351,119.251-115.25c5.139-16.379,7.909-33.821,7.909-51.901c0-0.659,0-1.309-0.02-1.968l0,0
		L274.613,99.293"/>
	<path style="fill:#1CA4BA;" d="M264.489,94.435H144.27c-7.17,0-12.982,5.82-12.982,12.979v40.881h22.001v-31.86h102.179v31.86
		h22.001v-40.881C277.469,100.255,271.66,94.435,264.489,94.435"/>
	<polyline style="fill:#C2C2C2;" points="204.38,130.831 167.17,168.142 193.379,168.142 193.379,210.382 215.38,232.392 
		215.38,168.142 241.589,168.142 204.38,130.831 	"/>
	<polyline style="fill:#FFFFFF;" points="241.589,168.142 215.38,168.142 215.38,314.321 193.379,314.321 193.379,168.142 
		167.17,168.142 204.38,130.831 241.589,168.142 	"/>
</g>
<g>
</g>
<g>
</g>
<g>
</g>
<g>
</g>
<g>
</g>
<g>
</g>
<g>
</g>
<g>
</g>
<g>
</g>
<g>
</g>
<g>
</g>
<g>
</g>
<g>
</g>
<g>
</g>
<g>
</g>
</svg>
